<?xml version="1.0" encoding="UTF-8" standalone="no"?>
<svg
   width="172.659"
   height="247.953"
   viewBox="0 0 172.659 247.953"
   version="1.1"
   id="svg1959"
   sodipodi:docname="app_splash_logo.svg"
   inkscape:version="1.2.1 (9c6d41e410, 2022-07-14, custom)"
   xmlns:inkscape="http://www.inkscape.org/namespaces/inkscape"
   xmlns:sodipodi="http://sodipodi.sourceforge.net/DTD/sodipodi-0.dtd"
   xmlns="http://www.w3.org/2000/svg"
   xmlns:svg="http://www.w3.org/2000/svg">
  <defs
     id="defs1963" />
  <sodipodi:namedview
     id="namedview1961"
     pagecolor="#ffffff"
     bordercolor="#666666"
     borderopacity="1.0"
     inkscape:showpageshadow="2"
     inkscape:pageopacity="0.0"
     inkscape:pagecheckerboard="0"
     inkscape:deskcolor="#d1d1d1"
     showgrid="false"
     inkscape:zoom="1.346039"
     inkscape:cx="50.890058"
     inkscape:cy="88.036085"
     inkscape:window-width="1600"
     inkscape:window-height="876"
     inkscape:window-x="0"
     inkscape:window-y="0"
     inkscape:window-maximized="1"
     inkscape:current-layer="svg1959" />
  <path
     id="app_splash_logo"
     style="fill:#ffffff"
     transform="translate(1990)"
     d="m -1903.252,0 a 3.58,3.58 0 0 0 -3.5839,3.578125 v 16.707031 l 0.01,-0.002 a 3.58,3.58 0 0 0 3.5782,3.576172 3.58,3.58 0 0 0 3.58,-3.580078 V 3.578125 A 3.58,3.58 0 0 0 -1903.252,0 Z m -59.248,26.3125 a 3.579,3.579 0 0 0 -2.5312,1.048828 3.579,3.579 0 0 0 0,5.0625 l 11.8105,11.810547 0.01,-0.002 a 3.565,3.565 0 0 0 2.5273,1.052734 3.567,3.567 0 0 0 2.5313,-1.048828 3.579,3.579 0 0 0 0,-5.0625 l -11.8125,-11.8125 A 3.579,3.579 0 0 0 -1962.5,26.3125 Z m 117.6504,0 a 3.579,3.579 0 0 0 -2.5313,1.048828 l -11.8125,11.8125 a 3.58,3.58 0 0 0 0,5.060547 l 0.01,-0.002 a 3.565,3.565 0 0 0 2.5254,1.052734 3.569,3.569 0 0 0 2.5312,-1.048828 l 11.8125,-11.8125 a 3.579,3.579 0 0 0 0,-5.0625 3.579,3.579 0 0 0 -2.5312,-1.048828 z m -54.2617,4.916016 a 51.323,51.323 0 0 0 -10.3653,0.03906 61.29,61.29 0 0 0 -12.0058,2.837891 53.26,53.26 0 0 0 -27.8906,24.880859 c -1.384,2.734991 -1.4202,3.322363 -0.4512,4.56836 a 2.4,2.4 0 0 0 3.4961,0.277343 37.2,37.2 0 0 0 2.1445,-3.564453 47.606,47.606 0 0 1 25.4004,-21.558594 46.548,46.548 0 0 1 29.9004,0 46.656,46.656 0 0 1 25.9883,22.873047 44.664,44.664 0 0 1 5.0859,21.59375 45.324,45.324 0 0 1 -4.7734,20.900389 c -2.109,4.257 -4.7106,7.89075 -9.3106,13.01172 -5.329,5.95197 -7.2333,8.96309 -8.4433,13.28906 l -0.5528,2.07422 h -45.1582 l -0.8008,-2.2832 c -1.453,-4.36 -3.3907,-7.09324 -10.3457,-14.74024 a 46.41,46.41 0 0 1 -10.416,-17.509761 c -1.869,-5.636985 -2.3873,-9.655521 -2.1113,-16.4375 0.105,-3.182991 0.316,-6.506253 0.416,-7.40625 0.173,-1.353997 0.07,-1.730516 -0.5527,-2.353516 a 2.679,2.679 0 0 0 -3.8399,0.347656 c -1.453,2.006994 -1.8353,13.356693 -0.6933,20.138672 a 51.635,51.635 0 0 0 12.457,25.744139 c 6.921,7.71797 7.7513,8.75721 9.0313,11.28321 a 20.885,20.885 0 0 1 1.5585,4.15234 c 0.103,0.834 0.3113,6.0962 0.4493,11.70117 l 0.2422,10.24219 1.1406,2.2832 a 13.774,13.774 0 0 0 3.1504,4.1543 l 2.0058,1.86719 0.1739,2.9414 a 12.909,12.909 0 0 0 7.5449,11.52344 l 2.248,1.07422 h 11.0742 l 11.0723,-0.008 2.2481,-1.07227 a 12.909,12.909 0 0 0 7.5449,-11.52539 l 0.1738,-2.93945 2.0059,-1.86914 a 13.755,13.755 0 0 0 3.1484,-4.15235 l 1.1426,-2.28515 0.1719,-11.625 c 0.169,-10.96997 0.2427,-11.69728 0.9687,-13.53125 1.003,-2.527 3.5659,-6.12579 6.7149,-9.55079 8.6857,-9.30797 12.9789,-17.61337 14.8789,-28.652339 0.588,-3.529991 0.6585,-5.087703 0.5195,-10.554688 -0.277,-8.996973 -1.5219,-14.04768 -5.4316,-21.972656 a 51.323,51.323 0 0 0 -40.9551,-28.207031 z m -87.3106,51.101562 a 3.579,3.579 0 0 0 -3.5781,3.580078 3.579,3.579 0 0 0 3.5742,3.582032 l 16.7051,-0.0039 a 3.579,3.579 0 0 0 3.5781,-3.578125 3.579,3.579 0 0 0 -3.5781,-3.580078 z m 148.7949,0.0039 a 3.579,3.579 0 0 0 -3.5781,3.578125 3.579,3.579 0 0 0 3.5781,3.580079 h 16.7012 a 3.579,3.579 0 0 0 3.5781,-3.580079 3.579,3.579 0 0 0 -3.5781,-3.578125 z m -91.9414,1.09961 c -0.5584,0.394901 -1.1061,0.805086 -1.6093,1.271484 -0.055,0.05093 -0.1132,0.100535 -0.17,0.150391 a 8.254,8.254 0 0 0 -0.1074,0.457031 c 0.8094,-0.790669 1.5191,-1.48259 1.8867,-1.878906 z m -1.5898,3.378906 c -0.042,-6.66e-4 -0.085,0.0142 -0.127,0.01953 0.1691,0.113564 0.2985,0.196678 0.5508,0.371094 0.066,-0.02481 0.2451,-0.02437 0.1973,-0.07617 -0.2115,-0.229114 -0.4152,-0.311195 -0.6211,-0.314453 z m -19.5254,44.50195 a 3.579,3.579 0 0 0 -2.5312,1.04883 l -11.8125,11.8125 a 3.58,3.58 0 0 0 0,5.0586 3.567,3.567 0 0 0 2.5312,1.05078 3.569,3.569 0 0 0 2.5313,-1.04688 l 11.8125,-11.8125 a 3.579,3.579 0 0 0 0,-5.0625 3.579,3.579 0 0 0 -2.5313,-1.04883 z m 94.0254,0 a 3.58,3.58 0 0 0 -2.5313,1.04883 3.58,3.58 0 0 0 0,5.0625 l 11.8125,11.8086 a 3.569,3.569 0 0 0 2.5313,1.05078 3.566,3.566 0 0 0 2.5312,-1.04688 3.58,3.58 0 0 0 0,-5.0625 l -11.8125,-11.8125 a 3.58,3.58 0 0 0 -2.5312,-1.04883 z m -68.9766,6.50586 h 44.6407 v 8.65039 h -3.6348 c -3.183,0 -3.7362,0.10341 -4.3242,0.69141 a 2.587,2.587 0 0 0 0.209,3.77344 c 0.795,0.627 1.4172,0.72656 4.3242,0.72656 h 3.4258 v 0.93359 a 10.191,10.191 0 0 1 -2.3536,5.05274 9.9,9.9 0 0 1 -2.3203,1.73047 c -1.348,0.761 -1.6595,0.76171 -17.6465,0.76171 -15.9867,0 -16.2984,-7.1e-4 -17.6484,-0.76171 a 9.912,9.912 0 0 1 -2.3183,-1.73047 10.183,10.183 0 0 1 -2.3536,-5.05274 v -0.93359 h 26.9571 l 0.8652,-0.76172 a 2.406,2.406 0 0 0 0.207,-3.73828 c -0.661,-0.657 -1.1423,-0.69141 -14.3613,-0.69141 h -13.668 z m 6.5703,27.67969 h 31.4903 v 1.2832 c -0.033,2.837 -2.593,6.09008 -5.5,6.95508 -1.799,0.554 -18.6863,0.554 -20.4863,0 -2.9,-0.865 -5.465,-4.11708 -5.5,-6.95508 z" />
  <path
     d="m 86.214806,124.41274 c -2.344194,0 -4.630062,-0.24085 -6.871213,-0.6096 l 1.921056,-4.78662 c 1.623008,0.21942 3.267419,0.37135 4.950157,0.37135 2.327416,0 4.597654,-0.24281 6.806238,-0.65441 l -5.582532,-6.04671 H 76.164424 v -5.02412 h -5.490295 c -0.579743,0.99588 -1.648332,1.67493 -2.884333,1.67493 -1.850269,0 -3.351184,-1.50031 -3.351184,-3.35119 0,-1.85092 1.500306,-3.35051 3.351184,-3.35051 1.23673,0 2.305306,0.67776 2.884333,1.67493 h 5.490295 v -5.026114 h 20.103097 v 0.716724 l 4.110039,4.45223 c 0.29343,-0.0837 0.59661,-0.14217 0.91472,-0.14217 1.85026,0 3.35052,1.5003 3.35052,3.35118 0,1.84959 -1.49966,3.34851 -3.35052,3.34851 -1.850925,0 -3.349847,-1.49835 -3.349847,-3.34851 0,-0.27526 0.04087,-0.53885 0.102569,-0.79462 l -3.906272,-4.23219 -14.622613,6.2e-4 v 6.70104 H 89.5665 v 0.71478 l 7.189985,7.78596 c 6.120015,-1.82434 11.553975,-5.21308 15.888035,-9.67446 l -5.10272,-5.52735 h -1.22247 V 86.791985 l -5.05867,-5.475341 c -1.399055,1.218553 -2.886341,2.515053 -4.328918,3.771827 -0.278514,0.244756 -0.830984,0.725163 -0.830984,0.725163 l -1.508749,0.02204 v 0.04741 h -7.165214 c -0.579742,0.997825 -1.64834,1.676257 -2.885001,1.676257 -1.850262,0 -3.350515,-1.500306 -3.350515,-3.351185 0,-1.850877 1.500298,-3.349846 3.350515,-3.349846 1.23673,0 2.305304,0.677763 2.885001,1.674919 h 7.165214 v 0.365503 l 10.050391,-8.956482 6.2e-4,-13.185351 h -6.699204 v 7.166552 c 0.995879,0.579741 1.673589,1.648332 1.673589,2.884339 0,1.850263 -1.498356,3.351177 -3.349846,3.351177 -1.849601,0 -3.350515,-1.500298 -3.350515,-3.351177 0,-1.236736 0.677762,-2.305312 1.674928,-2.884339 V 57.407053 h 10.050378 v -6.685589 c -1.32697,-0.768017 -2.68972,-1.482793 -4.11468,-2.08261 -0.532995,0.245409 -1.122475,0.392774 -1.74889,0.392774 -2.311783,0 -4.18731,-1.875527 -4.18731,-4.187982 0,-2.311787 1.875527,-4.187314 4.18731,-4.187314 2.08776,0 3.80374,1.530168 4.12117,3.525189 14.81491,6.449908 25.1937,21.165092 25.1937,38.353107 6.1e-4,23.127872 -18.74861,41.878132 -41.878138,41.878132 z M 114.6942,84.209866 c -1.85026,0 -3.34985,-1.498353 -3.34985,-3.349846 0,-1.236738 0.67841,-2.305313 1.67426,-2.886331 V 64.1086 h 5.09176 c -2.56242,-4.402876 -6.02263,-8.216914 -10.11588,-11.218916 v 24.620315 h -2.36563 c -0.54338,0.472625 -1.16338,1.01471 -1.84112,1.603531 l 6.07264,6.579044 -0.25254,0.192819 h 0.0597 v 5.025443 h 2.14045 c 0.57909,-0.997826 1.64703,-1.674928 2.88433,-1.674928 1.85027,0 3.35118,1.500307 3.35118,3.351184 0,1.849593 -1.5003,3.350515 -3.35118,3.350515 -1.23673,0 -2.30531,-0.678416 -2.88433,-1.674927 h -2.14045 v 5.74025 l 5.20992,5.64286 c 5.10855,-6.320606 8.19232,-14.346717 8.19232,-23.109582 0,-5.382601 -1.1783,-10.476847 -3.25579,-15.076493 h -3.44524 V 77.97495 c 0.99781,0.581688 1.67492,1.648986 1.67492,2.886331 10e-4,1.850263 -1.49901,3.349855 -3.34919,3.349855 z M 86.214806,45.680589 c -1.129614,0 -2.244973,0.07074 -3.348517,0.170084 v 10.59701 l 4.11003,4.452228 c 0.292139,-0.08374 0.595965,-0.142176 0.914083,-0.142176 1.850262,0 3.351176,1.500306 3.351176,3.351184 0,1.850262 -1.500299,3.350514 -3.351176,3.350514 -1.850931,0 -3.349854,-1.500298 -3.349854,-3.350514 0,-0.274609 0.04087,-0.53884 0.10323,-0.793967 l -2.359155,-2.557931 h -1.785279 l -5.909777,5.152086 4.52303,4.898304 h 0.401216 v 0.435614 l 0.01687,0.01885 -0.01687,0.0149 v 21.309684 l 17.219592,6.24e-4 c 0.579096,-0.998472 1.647038,-1.676257 2.88434,-1.676257 1.850265,0 3.351175,1.500306 3.351175,3.351183 0,1.850923 -1.5003,3.349847 -3.351175,3.349847 -1.23674,0 -2.305313,-0.678408 -2.88434,-1.674259 H 76.166611 L 76.165951,72.552157 60.80127,55.909266 c -0.93096,0.886804 -1.807385,1.826828 -2.642184,2.805886 l 14.25515,15.443287 h 0.401215 v 0.434322 l 0.01687,0.01885 -0.01687,0.01497 V 97.611516 H 57.740949 V 89.236022 H 49.99072 c 2.553943,13.862428 12.865256,24.995908 26.272301,28.755268 l -1.88466,4.69887 c -17.3592,-5.11386 -30.039974,-21.14183 -30.039974,-40.154674 0,-23.12953 18.750263,-41.878128 41.878128,-41.878128 2.277389,0 4.496443,0.231116 6.675112,0.581041 l -1.919074,4.785952 c -1.560676,-0.201253 -3.140272,-0.342782 -4.756699,-0.342782 z m -30.146338,15.71203 c -4.219888,5.979744 -6.70685,13.263289 -6.70685,21.141826 0,1.129622 0.05844,2.244981 0.15906,3.349855 h 11.566926 v 8.376618 h 8.375957 l 6.61e-4,-18.358038 -5.237174,-5.672772 -4.868389,6.742579 c 0.02856,0.175289 0.05585,0.351871 0.05585,0.534948 0,1.85027 -1.500307,3.350523 -3.350523,3.350523 -1.850263,0 -3.350515,-1.500306 -3.350515,-3.350523 0,-1.850209 1.500306,-3.350514 3.350515,-3.350514 0.373298,0 0.725169,0.0753 1.060156,0.188268 l 4.785953,-6.626413 z M 79.51544,46.318786 c -6.046724,1.112083 -11.557125,3.721298 -16.184026,7.391906 l 8.986898,9.73611 7.197128,-6.274573 z"
     fill-rule="evenodd"
     id="path70"
     style="fill:#ffffff;stroke-width:0.166196" />
  <text
     xml:space="preserve"
     style="font-style:normal;font-weight:normal;font-size:40px;line-height:1.25;font-family:sans-serif;fill:#ffffff;fill-opacity:1;stroke:none"
     x="30.270773"
     y="227.05273"
     id="text2153"><tspan
       sodipodi:role="line"
       x="30.270773"
       y="227.05273"
       id="tspan2155"
       style="font-style:normal;font-variant:normal;font-weight:normal;font-stretch:normal;font-family:sans-serif;-inkscape-font-specification:sans-serif;fill:#ffffff">VoltA</tspan></text>
  <text
     xml:space="preserve"
     style="font-style:normal;font-weight:normal;font-size:16px;line-height:1.25;font-family:sans-serif;fill:#ffffff;fill-opacity:1;stroke:none"
     x="110.93272"
     y="237.84076"
     id="text2218"><tspan
       sodipodi:role="line"
       id="tspan2216"
       x="110.93272"
       y="237.84076"
       style="font-size:16px;fill:#ffffff">Quiz</tspan></text>
</svg>
