<?xml version="1.0" encoding="UTF-8" standalone="no"?>
<svg
   width="106.562"
   height="110.58"
   viewBox="0 0 106.562 110.58"
   version="1.1"
   id="svg127"
   sodipodi:docname="bulb.svg"
   inkscape:version="1.2.1 (9c6d41e410, 2022-07-14, custom)"
   xmlns:inkscape="http://www.inkscape.org/namespaces/inkscape"
   xmlns:sodipodi="http://sodipodi.sourceforge.net/DTD/sodipodi-0.dtd"
   xmlns="http://www.w3.org/2000/svg"
   xmlns:svg="http://www.w3.org/2000/svg">
  <defs
     id="defs131" />
  <sodipodi:namedview
     id="namedview129"
     pagecolor="#ffffff"
     bordercolor="#666666"
     borderopacity="1.0"
     inkscape:showpageshadow="2"
     inkscape:pageopacity="0.0"
     inkscape:pagecheckerboard="0"
     inkscape:deskcolor="#d1d1d1"
     showgrid="false"
     inkscape:zoom="4.2684029"
     inkscape:cx="51.658666"
     inkscape:cy="83.75498"
     inkscape:window-width="1366"
     inkscape:window-height="744"
     inkscape:window-x="1600"
     inkscape:window-y="132"
     inkscape:window-maximized="1"
     inkscape:current-layer="Group_1" />
  <g
     id="bulb"
     transform="translate(-115.149 -330.921)">
    <g
       id="Group_1"
       data-name="Group 1"
       transform="translate(115.149 330.921)">
      <path
         id="app_splash_logo"
         style="fill:#781fff;fill-opacity:1;stroke-width:0.613047"
         d="M 53.514284,0.53298217 A 2.194708,2.194708 0 0 0 51.317186,2.7265406 V 12.968734 l 0.0061,-0.0012 a 2.194708,2.194708 0 0 0 2.193604,2.192362 2.194708,2.194708 0 0 0 2.194708,-2.194756 V 2.7265406 A 2.194708,2.194708 0 0 0 53.514284,0.53298217 Z M 17.192481,16.663779 a 2.1940949,2.1940949 0 0 0 -1.551744,0.642981 2.1940949,2.1940949 0 0 0 0,3.10355 l 7.240391,7.240419 0.0061,-0.0012 a 2.1855123,2.1855123 0 0 0 1.549354,0.645376 2.1867383,2.1867383 0 0 0 1.551806,-0.642981 2.1940949,2.1940949 0 0 0 0,-3.103551 l -7.241617,-7.241616 a 2.1940949,2.1940949 0 0 0 -1.55432,-0.642952 z m 72.125214,0 a 2.1940949,2.1940949 0 0 0 -1.551806,0.642981 l -7.241617,7.241617 a 2.194708,2.194708 0 0 0 0,3.102352 l 0.0061,-0.0012 a 2.1855123,2.1855123 0 0 0 1.548189,0.645376 2.1879644,2.1879644 0 0 0 1.551743,-0.642981 l 7.241617,-7.241618 a 2.1940949,2.1940949 0 0 0 0,-3.103549 2.1940949,2.1940949 0 0 0 -1.551744,-0.642981 z m -33.264967,3.013749 a 31.463407,31.463407 0 0 0 -6.354415,0.02395 37.573645,37.573645 0 0 0 -7.360119,1.73976 32.650879,32.650879 0 0 0 -17.098246,15.253134 c -0.848457,1.676678 -0.87065,2.036764 -0.276607,2.800619 a 1.4713126,1.4713126 0 0 0 2.143273,0.170024 22.805345,22.805345 0 0 0 1.314679,-2.185177 29.184712,29.184712 0 0 1 15.571638,-13.216429 28.536108,28.536108 0 0 1 18.330346,0 28.602317,28.602317 0 0 1 15.932048,14.02225 27.381128,27.381128 0 0 1 3.117894,13.237983 27.785739,27.785739 0 0 1 -2.926318,12.81292 c -1.292916,2.60974 -2.887819,4.8374 -5.707834,7.976794 -3.266927,3.648837 -4.434352,5.494795 -5.176139,8.146817 l -0.338892,1.271595 H 39.539941 L 39.049013,80.332054 C 38.158256,77.659169 36.970356,75.983565 32.706614,71.295596 A 28.451507,28.451507 0 0 1 26.321117,60.56129 c -1.145784,-3.455737 -1.463527,-5.919288 -1.294326,-10.076959 0.06437,-1.951323 0.193724,-3.988639 0.255028,-4.540378 0.106057,-0.830064 0.04291,-1.060889 -0.338831,-1.442816 a 1.6423526,1.6423526 0 0 0 -2.354039,0.213129 c -0.890757,1.230382 -1.125125,8.188279 -0.425025,12.345951 a 31.654677,31.654677 0 0 0 7.636725,15.782365 c 4.242898,4.731478 4.751911,5.368581 5.53661,6.917137 a 12.803484,12.803484 0 0 1 0.955434,2.54558 c 0.06314,0.511281 0.190842,3.737257 0.275442,7.173366 l 0.14848,6.278943 0.699242,1.399709 a 8.4441082,8.4441082 0 0 0 1.931343,2.546781 l 1.229649,1.144682 0.106609,1.80321 a 7.9138227,7.9138227 0 0 0 4.625377,7.0644 l 1.37813,0.65856 h 6.789004 l 6.787839,-0.005 1.378191,-0.65735 a 7.9138227,7.9138227 0 0 0 4.625377,-7.0656 l 0.106547,-1.80202 1.229711,-1.14587 a 8.4324604,8.4324604 0 0 0 1.930117,-2.545586 l 0.700467,-1.400904 0.105384,-7.126671 c 0.103604,-6.725106 0.148786,-7.170981 0.593858,-8.29529 0.614886,-1.54917 2.186064,-3.755397 4.116549,-5.855082 5.324741,-5.706223 7.956674,-10.797823 9.121463,-17.56523 0.360472,-2.16405 0.403691,-3.119001 0.318478,-6.470518 C 84.320136,44.924162 83.556954,41.827842 81.160124,36.96946 A 31.463407,31.463407 0 0 0 56.052728,19.677409 Z M 2.5272335,51.005182 a 2.1940949,2.1940949 0 0 0 -2.19354327,2.194756 2.1940949,2.1940949 0 0 0 2.19115237,2.195954 l 10.2410104,-0.0023 a 2.1940949,2.1940949 0 0 0 2.193543,-2.193559 2.1940949,2.1940949 0 0 0 -2.193543,-2.194756 z m 91.2182545,0.0023 a 2.1940949,2.1940949 0 0 0 -2.193544,2.193558 2.1940949,2.1940949 0 0 0 2.193544,2.194756 h 10.238622 a 2.1940949,2.1940949 0 0 0 2.19354,-2.194756 2.1940949,2.1940949 0 0 0 -2.19354,-2.193558 z m -56.364391,0.674112 c -0.342326,0.242093 -0.678092,0.493555 -0.986577,0.77948 -0.03372,0.03122 -0.0694,0.06164 -0.104218,0.09219 a 5.0600893,5.0600893 0 0 0 -0.06584,0.280182 c 0.4962,-0.484718 0.93128,-0.908898 1.156636,-1.151858 z m -0.974623,2.071428 c -0.02575,-4.09e-4 -0.05211,0.0087 -0.07786,0.01197 0.103666,0.06963 0.182994,0.120574 0.337666,0.227499 0.04046,-0.01521 0.150258,-0.01494 0.120954,-0.0467 -0.129656,-0.14041 -0.254534,-0.190729 -0.380761,-0.192727 z M 24.436489,81.034894 a 2.1940949,2.1940949 0 0 0 -1.551745,0.642982 l -7.241617,7.241617 a 2.194708,2.194708 0 0 0 0,3.101159 2.1867383,2.1867383 0 0 0 1.551745,0.644177 2.1879644,2.1879644 0 0 0 1.551805,-0.641787 l 7.241618,-7.241616 a 2.1940949,2.1940949 0 0 0 0,-3.10355 2.1940949,2.1940949 0 0 0 -1.551806,-0.642982 z m 57.64198,0 a 2.194708,2.194708 0 0 0 -1.551805,0.642982 2.194708,2.194708 0 0 0 0,3.10355 l 7.241616,7.239226 a 2.1879644,2.1879644 0 0 0 1.551805,0.644177 2.1861253,2.1861253 0 0 0 1.551745,-0.641787 2.194708,2.194708 0 0 0 0,-3.103549 L 83.630213,81.677876 A 2.194708,2.194708 0 0 0 82.078469,81.034894 Z M 39.792578,85.023291 H 67.15942 v 5.303095 h -2.228303 c -1.951328,0 -2.290465,0.0634 -2.650937,0.423867 a 1.5859524,1.5859524 0 0 0 0.128127,2.313296 c 0.487372,0.38438 0.868809,0.445415 2.650937,0.445415 h 2.100176 v 0.572335 a 6.2475611,6.2475611 0 0 1 -1.442866,3.097566 6.0691645,6.0691645 0 0 1 -1.422454,1.060859 c -0.826387,0.466529 -1.017351,0.466965 -10.818131,0.466965 -9.800597,0 -9.991684,-4.36e-4 -10.819297,-0.466965 a 6.0765211,6.0765211 0 0 1 -1.421226,-1.060859 6.2426567,6.2426567 0 0 1 -1.442868,-3.097566 v -0.572335 h 16.525967 l 0.530408,-0.46697 a 1.4749909,1.4749909 0 0 0 0.126901,-2.291741 C 56.57063,90.347481 56.27557,90.326386 48.171703,90.326386 h -8.379125 z m 4.027902,16.968949 h 19.30503 v 0.78666 c -0.02023,1.73921 -1.58963,3.73351 -3.371756,4.26379 -1.102872,0.33963 -11.455579,0.33963 -12.559064,0 -1.777836,-0.53028 -3.350301,-2.52397 -3.371758,-4.26379 z" />
      <path
         d="m 53.187384,76.803828 c -1.437099,0 -2.838444,-0.147653 -4.212374,-0.373713 l 1.177694,-2.934423 c 0.99498,0.134515 2.003081,0.227655 3.03468,0.227655 1.426817,0 2.818581,-0.148854 4.172544,-0.401184 l -3.422353,-3.706917 h -6.911546 v -3.080021 h -3.365812 c -0.355407,0.610521 -1.010503,1.02681 -1.768229,1.02681 -1.134302,0 -2.054431,-0.91976 -2.054431,-2.054436 0,-1.134701 0.919755,-2.05402 2.054431,-2.05402 0.758173,0 1.413263,0.415499 1.768229,1.026811 h 3.365812 v -3.081241 h 12.324144 v 0.439382 l 2.519646,2.729426 c 0.179886,-0.05131 0.36575,-0.08716 0.560765,-0.08716 1.134297,0 2.054027,0.919755 2.054027,2.054431 0,1.133885 -0.919362,2.052794 -2.054027,2.052794 -1.134705,0 -2.053613,-0.91856 -2.053613,-2.052794 0,-0.168748 0.02508,-0.330341 0.06288,-0.48714 l -2.394727,-2.59453 -8.964352,3.8e-4 v 4.108051 h 6.161361 v 0.438194 l 4.407795,4.773159 c 3.751858,-1.118407 7.083131,-3.195863 9.740112,-5.930898 L 66.261834,63.453922 H 65.512402 V 53.740541 L 62.4112,50.3839 c -0.85769,0.74703 -1.769467,1.541845 -2.65383,2.312306 -0.170745,0.150048 -0.509435,0.444559 -0.509435,0.444559 L 58.323,53.154276 v 0.02906 h -4.39261 c -0.355408,0.611713 -1.010509,1.027623 -1.76864,1.027623 -1.134297,0 -2.054026,-0.919757 -2.054026,-2.054433 0,-1.134674 0.919755,-2.053612 2.054026,-2.053612 0.758174,0 1.413257,0.415499 1.76864,1.026803 H 58.323 v 0.224071 l 6.161366,-5.490744 3.8e-4,-8.083239 h -4.106929 v 4.393433 c 0.610521,0.355409 1.025988,1.010505 1.025988,1.768235 0,1.134298 -0.918564,2.054428 -2.053608,2.054428 -1.133897,0 -2.054026,-0.919752 -2.054026,-2.054428 0,-0.758177 0.415499,-1.413264 1.026811,-1.768235 v -6.447045 h 6.161353 v -4.098575 c -0.813495,-0.470831 -1.648924,-0.909021 -2.522492,-1.276738 -0.326754,0.150447 -0.688131,0.240789 -1.072151,0.240789 -1.417235,0 -2.567017,-1.149786 -2.567017,-2.567429 0,-1.417234 1.149782,-2.56702 2.567017,-2.56702 1.279894,0 2.331871,0.938065 2.52647,2.161106 9.082235,3.954096 15.44492,12.975195 15.44492,23.512254 3.74e-4,14.178472 -11.493777,25.67326 -25.673263,25.67326 z M 70.646591,52.157581 c -1.134297,0 -2.053615,-0.918561 -2.053615,-2.053614 0,-0.758178 0.415897,-1.413264 1.0264,-1.769456 v -8.499949 h 3.121487 c -1.570884,-2.69917 -3.692155,-5.037354 -6.201509,-6.877723 v 15.093409 h -1.450242 c -0.333117,0.289741 -0.713207,0.622064 -1.128693,0.983039 l 3.722814,4.033263 -0.15482,0.118207 h 0.0366 v 3.080832 h 1.312195 c 0.35501,-0.611714 1.009707,-1.026809 1.768231,-1.026809 1.134302,0 2.05443,0.919758 2.05443,2.054433 0,1.133888 -0.919754,2.054023 -2.05443,2.054023 -0.758175,0 -1.413264,-0.415901 -1.768231,-1.026809 h -1.312195 v 3.519042 l 3.193925,3.459338 c 3.13178,-3.874831 5.022276,-8.79521 5.022276,-14.167258 0,-3.299787 -0.722353,-6.422798 -1.995952,-9.242597 h -2.112094 v 6.446332 c 0.611705,0.356603 1.026805,1.010906 1.026805,1.769457 6.13e-4,1.134298 -0.918964,2.053618 -2.053211,2.053618 z M 53.187384,28.537326 c -0.692505,0 -1.376273,0.04337 -2.0528,0.10427 v 6.496464 l 2.519641,2.729424 c 0.179096,-0.05133 0.365358,-0.08716 0.56038,-0.08716 1.134296,0 2.054425,0.919758 2.054425,2.054433 0,1.134297 -0.919755,2.054022 -2.054425,2.054022 -1.134707,0 -2.053621,-0.919752 -2.053621,-2.054022 0,-0.168349 0.02508,-0.330334 0.06329,-0.486739 L 50.778001,37.779887 H 49.68354 l -3.622972,3.158469 2.77283,3.002891 h 0.245966 v 0.267052 l 0.01036,0.01156 -0.01036,0.0092 V 57.29286 l 10.556417,3.82e-4 c 0.355016,-0.61211 1.009712,-1.027624 1.768234,-1.027624 1.134302,0 2.054431,0.919758 2.054431,2.054432 0,1.134703 -0.919755,2.053614 -2.054431,2.053614 -0.758178,0 -1.413262,-0.415896 -1.768234,-1.026399 H 47.027372 l -4.05e-4,-14.336407 -9.41927,-10.202873 c -0.570722,0.543652 -1.108015,1.119931 -1.619786,1.72014 l 8.739076,9.46746 h 0.245967 v 0.266259 l 0.01036,0.01155 -0.01036,0.0092 V 60.373413 H 35.731577 V 55.238842 H 30.98032 c 1.565687,8.498318 7.887004,15.323664 16.106156,17.628327 l -1.155385,2.880637 C 35.289087,72.61277 27.515175,62.786872 27.515175,51.131107 c 0,-14.179487 11.494793,-25.673257 25.673256,-25.673257 1.396148,0 2.75653,0.141685 4.092157,0.356205 l -1.176481,2.934013 c -0.95677,-0.123377 -1.925132,-0.210141 -2.91608,-0.210141 z m -18.481122,9.632212 c -2.586984,3.665864 -4.111611,8.131018 -4.111611,12.960931 0,0.692511 0.03583,1.376279 0.09751,2.053619 h 7.091069 v 5.135259 h 5.134856 l 4.05e-4,-11.254339 -3.210637,-3.477675 -2.984545,4.133517 c 0.01754,0.107461 0.03421,0.215714 0.03421,0.327948 0,1.134303 -0.919755,2.054028 -2.054026,2.054028 -1.134296,0 -2.05402,-0.919757 -2.05402,-2.054028 0,-1.134264 0.919754,-2.054022 2.05402,-2.054022 0.22885,0 0.444563,0.04616 0.649928,0.115417 l 2.934012,-4.062302 z m 14.374099,-9.240967 c -3.706929,0.681759 -7.085063,2.281331 -9.921569,4.531585 l 5.509392,5.968692 4.412177,-3.846607 z"
         fill-rule="evenodd"
         id="path70"
         style="fill:#781fff;fill-opacity:1;stroke-width:0.101886" />
    </g>
  </g>
</svg>
